<?xml version="1.0" encoding="UTF-8" standalone="no"?>
<svg
   version="1.1"
   width="8.05556in"
   height="8.05556in"
   viewBox="0 0 580 580"
   id="svg1"
   sodipodi:docname="logo.svg"
   inkscape:version="1.4.4 (dcaf3e7d9e, 2026-05-05)"
   xmlns:inkscape="http://www.inkscape.org/namespaces/inkscape"
   xmlns:sodipodi="http://sodipodi.sourceforge.net/DTD/sodipodi-0.dtd"
   xmlns="http://www.w3.org/2000/svg"
   xmlns:svg="http://www.w3.org/2000/svg">
  <defs
     id="defs1" />
  <sodipodi:namedview
     id="namedview1"
     pagecolor="#ffffff"
     bordercolor="#000000"
     borderopacity="0.25"
     inkscape:showpageshadow="2"
     inkscape:pageopacity="0.0"
     inkscape:pagecheckerboard="0"
     inkscape:deskcolor="#d1d1d1"
     inkscape:document-units="in"
     inkscape:zoom="0.68211383"
     inkscape:cx="436.87723"
     inkscape:cy="450.07151"
     inkscape:window-width="1680"
     inkscape:window-height="989"
     inkscape:window-x="0"
     inkscape:window-y="0"
     inkscape:window-maximized="1"
     inkscape:current-layer="svg1" />
  <path
     id="path1"
     fill="none"
     stroke="black"
     stroke-width="1"
     d="M 0.00,0.00            C 0.00,0.00 195.00,0.00 195.00,0.00              193.93,6.92 186.44,28.50 183.24,35.00              181.83,37.87 179.22,44.09 176.61,45.71              173.98,47.34 164.34,47.98 161.00,48.00              161.00,48.00 49.00,48.00 49.00,48.00              49.00,48.00 49.00,534.00 49.00,534.00              49.00,534.00 102.00,534.00 102.00,534.00              105.02,534.00 108.15,534.15 111.00,532.99              119.19,529.66 124.93,515.66 128.75,508.00              128.75,508.00 151.22,465.00 151.22,465.00              151.22,465.00 169.58,430.00 169.58,430.00              169.58,430.00 181.30,407.00 181.30,407.00              183.31,403.15 185.68,399.52 184.29,395.00              184.29,395.00 169.33,371.00 169.33,371.00              169.33,371.00 136.67,322.00 136.67,322.00              132.74,316.12 120.82,300.28 120.63,294.00              120.47,289.02 126.14,276.15 128.20,271.00              128.20,271.00 146.60,225.00 146.60,225.00              146.60,225.00 181.80,137.00 181.80,137.00              181.80,137.00 209.80,65.00 209.80,65.00              209.80,65.00 228.58,17.00 228.58,17.00              232.64,6.33 232.26,0.03 245.00,0.00              245.00,0.00 288.00,0.00 288.00,0.00              288.00,0.00 279.20,25.00 279.20,25.00              279.20,25.00 263.05,67.00 263.05,67.00              263.05,67.00 229.20,154.00 229.20,154.00              229.20,154.00 208.00,207.00 208.00,207.00              208.00,207.00 241.00,220.00 241.00,220.00              241.00,220.00 306.00,246.20 306.00,246.20              306.00,246.20 349.00,263.43 349.00,263.43              349.00,263.43 372.00,273.40 372.00,273.40              372.00,273.40 425.00,295.00 425.00,295.00              425.00,295.00 442.80,249.00 442.80,249.00              442.80,249.00 479.80,156.00 479.80,156.00              479.80,156.00 508.80,83.00 508.80,83.00              508.80,83.00 523.00,48.00 523.00,48.00              523.00,48.00 509.00,49.00 509.00,49.00              504.46,49.05 496.03,48.54 492.21,50.98              489.14,52.95 485.97,60.54 484.25,64.00              484.25,64.00 468.14,98.00 468.14,98.00              468.14,98.00 422.78,194.00 422.78,194.00              422.78,194.00 404.26,233.00 404.26,233.00              404.26,233.00 396.00,250.00 396.00,250.00              396.00,250.00 366.00,238.00 366.00,238.00              366.00,238.00 398.31,148.00 398.31,148.00              398.31,148.00 431.81,55.00 431.81,55.00              431.81,55.00 446.00,16.00 446.00,16.00              447.21,12.44 449.66,2.95 452.56,0.99              454.38,-0.24 457.83,0.00 460.00,0.00              460.00,0.00 580.00,0.00 580.00,0.00              580.00,0.00 580.00,34.00 580.00,34.00              579.98,48.05 573.26,60.27 568.01,73.00              568.01,73.00 543.20,135.00 543.20,135.00              543.20,135.00 473.80,307.00 473.80,307.00              473.80,307.00 443.20,383.00 443.20,383.00              443.20,383.00 434.80,404.00 434.80,404.00              433.43,407.40 431.21,413.09 428.61,415.58              424.36,419.66 408.26,422.40 402.00,423.88              402.00,423.88 342.00,438.12 342.00,438.12              334.87,439.81 320.28,441.83 315.13,446.39              309.94,450.99 305.96,469.67 303.86,477.00              303.86,477.00 282.72,548.00 282.72,548.00              282.72,548.00 276.29,570.00 276.29,570.00              275.58,572.47 274.58,577.49 272.49,578.98              270.73,580.23 267.13,580.00 265.00,580.00              265.00,580.00 213.00,580.00 213.00,580.00              213.00,580.00 229.58,533.00 229.58,533.00              229.58,533.00 261.32,449.00 261.32,449.00              261.32,449.00 272.67,418.00 272.67,418.00              274.38,412.94 276.74,404.91 281.10,401.70              284.48,399.22 302.83,395.33 308.00,394.21              308.00,394.21 361.00,381.80 361.00,381.80              367.95,380.39 383.83,377.68 388.96,373.58              395.63,368.26 401.98,348.53 406.00,340.00              406.00,340.00 369.00,325.20 369.00,325.20              369.00,325.20 285.00,291.01 285.00,291.01              285.00,291.01 212.00,261.42 212.00,261.42              212.00,261.42 189.00,252.00 189.00,252.00              187.16,261.10 184.20,267.50 180.80,276.00              179.07,280.32 176.42,285.29 177.65,290.00              179.08,295.48 188.43,307.68 192.00,313.00              192.00,313.00 223.72,360.00 223.72,360.00              228.10,366.27 239.01,379.71 239.50,387.00              239.82,391.64 236.15,399.65 234.28,404.00              234.28,404.00 222.15,433.00 222.15,433.00              222.15,433.00 178.28,538.00 178.28,538.00              178.28,538.00 165.86,568.00 165.86,568.00              164.67,570.87 162.80,577.30 160.36,579.01              158.59,580.25 155.12,580.00 153.00,580.00              153.00,580.00 0.00,580.00 0.00,580.00              0.00,580.00 0.00,0.00 0.00,0.00 Z            M 262.00,169.00            C 262.00,169.00 271.63,127.00 271.63,127.00              271.63,127.00 284.37,74.00 284.37,74.00              284.37,74.00 293.00,39.00 293.00,39.00              293.00,39.00 299.37,13.00 299.37,13.00              299.37,13.00 303.70,1.60 303.70,1.60              303.70,1.60 312.00,0.00 312.00,0.00              312.00,0.00 340.00,0.00 340.00,0.00              340.00,0.00 325.86,33.00 325.86,33.00              325.86,33.00 297.31,96.00 297.31,96.00              297.31,96.00 277.31,140.00 277.31,140.00              277.31,140.00 262.00,169.00 262.00,169.00 Z            M 431.00,0.00            C 431.00,0.00 406.31,52.00 406.31,52.00              406.31,52.00 387.26,91.00 387.26,91.00              387.26,91.00 344.74,179.00 344.74,179.00              344.74,179.00 330.75,207.00 330.75,207.00              328.76,210.99 326.53,216.65 321.98,218.22              317.81,219.67 310.96,216.35 307.00,214.81              303.72,213.54 299.81,212.52 297.62,209.78              293.68,205.47 296.04,199.67 297.62,195.00              297.62,195.00 310.19,161.00 310.19,161.00              310.19,161.00 353.95,37.00 353.95,37.00              353.95,37.00 362.34,13.00 362.34,13.00              363.51,9.65 365.40,3.74 368.22,1.60              370.71,-0.29 374.05,0.01 377.00,0.00              377.00,0.00 431.00,0.00 431.00,0.00 Z            M 579.00,137.00            C 579.00,137.00 580.00,151.00 580.00,151.00              580.00,151.00 580.00,177.00 580.00,177.00              580.00,177.00 580.00,268.00 580.00,268.00              580.00,268.00 580.00,580.00 580.00,580.00              580.00,580.00 310.00,580.00 310.00,580.00              310.00,580.00 319.28,550.00 319.28,550.00              320.46,546.20 322.41,539.16 325.39,536.56              328.57,533.80 334.03,534.01 338.00,534.00              338.00,534.00 513.00,534.00 513.00,534.00              513.00,534.00 528.00,533.00 528.00,533.00              528.00,533.00 531.96,533.00 531.96,533.00              531.96,533.00 531.96,521.00 531.96,521.00              531.96,521.00 531.00,509.00 531.00,509.00              531.00,509.00 531.00,446.00 531.00,446.00              531.00,446.00 531.99,431.00 531.99,431.00              531.99,431.00 531.00,416.00 531.00,416.00              531.00,416.00 532.00,401.00 532.00,401.00              532.00,401.00 532.00,350.00 532.00,350.00              532.00,350.00 531.01,335.00 531.01,335.00              531.01,335.00 531.82,325.00 531.82,325.00              531.82,325.00 531.00,312.00 531.00,312.00              531.00,312.00 531.96,297.00 531.96,297.00              531.96,297.00 531.03,287.00 531.03,287.00              531.03,287.00 532.00,275.00 532.00,275.00              532.00,275.00 532.00,262.00 532.00,262.00              532.12,253.46 541.42,232.94 545.00,224.00              545.00,224.00 567.20,169.00 567.20,169.00              567.20,169.00 579.00,137.00 579.00,137.00 Z"
     style="fill:#000000;fill-opacity:1;stroke:none" />
</svg>
